<svg xmlns="http://www.w3.org/2000/svg" width="24" height="24" viewBox="0 0 24 24">
  <!-- White cube icon for tabs -->
  <g transform="translate(12.5, 12) scale(0.0296, 0.0296) translate(-315, -330)">
    <!-- Top face -->
    <path d="M 304.59375 3.09375 L 31.457031 149.265625 L 314.679688 301.847656 L 595.179688 147.667969 L 325.085938 3.574219 C 323.539062 2.667969 321.902344 1.96875 320.175781 1.480469 C 318.453125 0.992188 316.691406 0.722656 314.902344 0.683594 C 313.109375 0.640625 311.339844 0.824219 309.59375 1.230469 C 307.847656 1.640625 306.179688 2.261719 304.59375 3.09375 Z" fill="white"/>

    <!-- Right face -->
    <path d="M 611.667969 512.703125 C 612.527344 512.246094 613.351562 511.730469 614.140625 511.160156 C 614.929688 510.589844 615.675781 509.972656 616.382812 509.300781 C 617.085938 508.628906 617.742188 507.914062 618.347656 507.152344 C 618.957031 506.390625 619.507812 505.59375 620.007812 504.757812 C 620.503906 503.921875 620.945312 503.058594 621.328125 502.164062 C 621.707031 501.265625 622.027344 500.351562 622.28125 499.410156 C 622.539062 498.472656 622.730469 497.519531 622.855469 496.554688 C 622.980469 495.589844 623.042969 494.621094 623.035156 493.648438 L 623.035156 181.769531 L 336.613281 339.308594 L 336.613281 659.515625 Z" fill="white" opacity="0.7"/>

    <!-- Left face -->
    <path d="M 6.480469 493.007812 C 6.476562 493.988281 6.539062 494.960938 6.664062 495.929688 C 6.792969 496.902344 6.984375 497.855469 7.242188 498.800781 C 7.496094 499.746094 7.816406 500.667969 8.195312 501.570312 C 8.578125 502.46875 9.015625 503.339844 9.515625 504.183594 C 10.011719 505.023438 10.5625 505.828125 11.171875 506.597656 C 11.777344 507.363281 12.433594 508.085938 13.136719 508.765625 C 13.839844 509.445312 14.585938 510.074219 15.375 510.652344 C 16.164062 511.230469 16.988281 511.753906 17.847656 512.222656 L 293.222656 659.515625 L 293.222656 339.308594 L 6.480469 184.808594 Z" fill="white" opacity="0.6"/>
  </g>
</svg>
